# Blender v2.77 (sub 0) OBJ File: 'modules.blend'
# www.blender.org
mtllib gunIonSmall.mtl
o gunIon_Cylinder.012
v 0.000000 -0.040877 0.229219
v -0.028873 -0.028908 0.229219
v -0.028873 -0.028908 0.126903
v 0.000000 -0.040877 0.126903
v -0.040842 -0.000038 0.229227
v -0.040842 -0.000038 0.126903
v -0.028873 0.028859 0.229227
v -0.028873 0.028859 0.126903
v 0.000000 0.040828 0.229227
v 0.000000 0.040828 0.126903
v 0.028873 0.028859 0.229227
v 0.028873 0.028859 0.126903
v 0.040842 -0.000038 0.229227
v 0.040842 -0.000038 0.126903
v 0.028873 -0.028908 0.229219
v 0.028873 -0.028908 0.126903
v 0.000000 -0.029062 0.257652
v -0.020522 -0.020554 0.257652
v -0.029029 -0.000035 0.257658
v -0.020522 0.020504 0.257658
v 0.000000 0.029011 0.257658
v 0.020522 0.020504 0.257658
v 0.029029 -0.000035 0.257658
v 0.020522 -0.020554 0.257652
v 0.000000 -0.026818 0.288652
v -0.018936 -0.018968 0.288652
v -0.026785 -0.000035 0.288660
v -0.018936 0.018917 0.288660
v 0.000000 0.026767 0.288660
v 0.018936 0.018917 0.288660
v 0.026785 -0.000035 0.288660
v 0.018936 -0.018968 0.288652
v 0.000000 -0.018650 0.288654
v -0.013163 -0.013194 0.288654
v -0.018619 -0.000032 0.288659
v -0.013163 0.013142 0.288659
v 0.000000 0.018598 0.288659
v 0.013163 0.013142 0.288659
v 0.018619 -0.000032 0.288659
v 0.013163 -0.013194 0.288654
v 0.000000 -0.000028 0.201024
v -0.000000 -0.044454 0.234437
v -0.031401 -0.031437 0.234437
v -0.044419 -0.000039 0.234441
v -0.031401 0.031389 0.234441
v -0.000000 0.044406 0.234441
v 0.031401 0.031389 0.234441
v 0.044419 -0.000039 0.234441
v 0.031401 -0.031437 0.234437
v -0.000000 -0.036710 0.254079
v -0.025928 -0.025962 0.254079
v -0.036676 -0.000037 0.254083
v -0.025928 0.025913 0.254083
v -0.000000 0.036661 0.254083
v 0.025928 0.025913 0.254083
v 0.036676 -0.000037 0.254083
v 0.025928 -0.025962 0.254079
v 0.021213 0.035355 0.136216
v 0.021213 0.035355 0.191301
v 0.028284 0.038284 0.136216
v 0.028284 0.038284 0.191301
v 0.035355 0.035355 0.136216
v 0.035355 0.035355 0.191301
v 0.038284 0.028284 0.136216
v 0.038284 0.028284 0.191301
v 0.035355 0.021213 0.136216
v 0.035355 0.021213 0.191301
v 0.028284 0.018284 0.136216
v 0.028284 0.018284 0.191301
v 0.021213 0.021213 0.191301
v 0.018284 0.028284 0.136216
v 0.018284 0.028284 0.191301
v -0.018284 -0.028284 0.191301
v -0.018284 -0.028284 0.136216
v -0.021213 -0.021213 0.191301
v -0.028284 -0.018284 0.191301
v -0.028284 -0.018284 0.136216
v -0.035355 -0.021213 0.191301
v -0.035355 -0.021213 0.136216
v -0.038284 -0.028284 0.191301
v -0.038284 -0.028284 0.136216
v -0.035355 -0.035355 0.191301
v -0.035355 -0.035355 0.136216
v -0.028284 -0.038284 0.191301
v -0.028284 -0.038284 0.136216
v -0.021213 -0.035355 0.191301
v -0.021213 -0.035355 0.136216
v 0.061605 -0.089088 -0.106549
v 0.093035 -0.059279 -0.106549
v 0.114221 -0.000037 -0.106549
v 0.093034 0.059206 -0.106549
v 0.061605 0.089016 -0.106549
v 0.051344 -0.050446 -0.126421
v 0.059696 -0.000037 -0.126421
v 0.051344 0.050373 -0.126421
v 0.061360 -0.089088 0.089691
v 0.093193 -0.059247 0.089691
v 0.114221 -0.000037 0.089691
v 0.093193 0.059174 0.089691
v 0.061360 0.089016 0.089691
v 0.149849 -0.038898 -0.081119
v 0.150739 -0.000037 -0.081358
v 0.149849 0.038824 -0.081119
v 0.149849 -0.038898 0.080336
v 0.150739 -0.000037 0.080575
v 0.149849 0.038824 0.080336
v 0.044015 -0.078365 0.123592
v 0.082838 -0.049582 0.123592
v 0.093402 -0.000037 0.123592
v 0.082838 0.049508 0.123592
v 0.044015 0.078292 0.123592
v 0.000000 -0.000037 0.123592
v 0.052095 -0.049364 -0.139937
v 0.060447 -0.000037 -0.139937
v 0.052095 0.049291 -0.139937
v -0.061605 -0.089088 -0.106549
v -0.093035 -0.059279 -0.106549
v -0.114221 -0.000037 -0.106549
v -0.093034 0.059206 -0.106549
v -0.061605 0.089016 -0.106549
v -0.051344 -0.050446 -0.126421
v -0.059696 -0.000037 -0.126421
v -0.051344 0.050373 -0.126421
v -0.061360 -0.089088 0.089691
v -0.093193 -0.059247 0.089691
v -0.114221 -0.000037 0.089691
v -0.093193 0.059174 0.089691
v -0.061360 0.089016 0.089691
v -0.149849 -0.038898 -0.081119
v -0.150739 -0.000037 -0.081358
v -0.149849 0.038824 -0.081119
v -0.149849 -0.038898 0.080336
v -0.150739 -0.000037 0.080575
v -0.149849 0.038824 0.080336
v -0.044015 -0.078365 0.123592
v -0.082838 -0.049582 0.123592
v -0.093402 -0.000037 0.123592
v -0.082838 0.049508 0.123592
v -0.044015 0.078292 0.123592
v -0.052095 -0.049364 -0.139937
v -0.060447 -0.000037 -0.139937
v -0.052095 0.049291 -0.139937
v -0.000000 -0.000037 -0.139944
v 0.041347 0.073542 0.123456
v 0.036143 -0.064355 0.123458
v 0.068022 -0.040720 0.123458
v 0.076696 -0.000037 0.123458
v 0.068022 0.040647 0.123458
v 0.036143 0.064282 0.123458
v -0.036143 -0.064355 0.123458
v -0.068022 -0.040720 0.123458
v -0.076696 -0.000037 0.123458
v -0.068022 0.040647 0.123458
v -0.036143 0.064282 0.123458
v 0.077816 0.046504 0.123456
v -0.041347 0.073542 0.123456
v 0.077816 -0.046577 0.123456
v 0.041347 -0.073616 0.123456
v -0.077816 -0.046577 0.123456
v -0.077816 0.046504 0.123456
v -0.041347 -0.073616 0.123456
v -0.032857 -0.058508 0.138689
v -0.061838 0.036948 0.138689
v 0.032857 -0.058508 0.138689
v 0.061838 0.036948 0.138689
v 0.061838 -0.037021 0.138689
v 0.069724 -0.000037 0.138689
v 0.032857 0.058435 0.138689
v 0.000000 -0.000037 0.138689
v -0.061838 -0.037021 0.138689
v -0.069724 -0.000037 0.138689
v -0.032857 0.058435 0.138689
v 0.035355 -0.021213 0.136216
v 0.035355 -0.021213 0.191301
v 0.038284 -0.028284 0.136216
v 0.038284 -0.028284 0.191301
v 0.035355 -0.035355 0.136216
v 0.035355 -0.035355 0.191301
v 0.028284 -0.038284 0.136216
v 0.028284 -0.038284 0.191301
v 0.021213 -0.035355 0.136216
v 0.021213 -0.035355 0.191301
v 0.018284 -0.028284 0.136216
v 0.018284 -0.028284 0.191301
v 0.021213 -0.021213 0.191301
v 0.028284 -0.018284 0.136216
v 0.028284 -0.018284 0.191301
v -0.028284 0.018284 0.191301
v -0.028284 0.018284 0.136216
v -0.021213 0.021213 0.191301
v -0.018284 0.028284 0.191301
v -0.018284 0.028284 0.136216
v -0.021213 0.035355 0.191301
v -0.021213 0.035355 0.136216
v -0.028284 0.038284 0.191301
v -0.028284 0.038284 0.136216
v -0.035355 0.035355 0.191301
v -0.035355 0.035355 0.136216
v -0.038284 0.028284 0.191301
v -0.038284 0.028284 0.136216
v -0.035355 0.021213 0.191301
v -0.035355 0.021213 0.136216
vt 0.6762 0.9465
vt 0.6762 0.9284
vt 0.7353 0.9284
vt 0.7353 0.9465
vt 0.6762 0.9104
vt 0.7353 0.9104
vt 0.6762 0.8923
vt 0.7353 0.8923
vt 0.6762 0.8743
vt 0.7353 0.8743
vt 0.6762 0.8562
vt 0.7353 0.8562
vt 0.6762 0.8382
vt 0.7353 0.8382
vt 0.6762 0.8201
vt 0.6762 0.8021
vt 0.7353 0.8021
vt 0.7353 0.8201
vt 0.5724 0.2667
vt 0.5887 0.2915
vt 0.5841 0.2943
vt 0.5662 0.2691
vt 0.6138 0.4105
vt 0.6026 0.4389
vt 0.5973 0.4364
vt 0.6077 0.4089
vt 0.5799 0.4034
vt 0.5816 0.3775
vt 0.5911 0.3775
vt 0.5882 0.4052
vt 0.6026 0.3162
vt 0.6138 0.3446
vt 0.6077 0.3462
vt 0.5973 0.3187
vt 0.5736 0.4261
vt 0.5808 0.4292
vt 0.5887 0.4635
vt 0.5841 0.4607
vt 0.5637 0.4454
vt 0.5696 0.4499
vt 0.5468 0.4607
vt 0.5504 0.4691
vt 0.5503 0.9187
vt 0.5372 0.9295
vt 0.5225 0.9107
vt 0.5348 0.9029
vt 0.5471 0.8180
vt 0.5591 0.8305
vt 0.5415 0.8426
vt 0.5340 0.8336
vt 0.5681 0.8473
vt 0.5712 0.8665
vt 0.5486 0.8674
vt 0.5461 0.8540
vt 0.5695 0.8858
vt 0.5469 0.8811
vt 0.5624 0.9041
vt 0.5420 0.8930
vt 0.5344 0.8089
vt 0.5221 0.8271
vt 0.5406 0.8557
vt 0.5369 0.8454
vt 0.5309 0.8375
vt 0.5216 0.8334
vt 0.5372 0.8902
vt 0.5411 0.8796
vt 0.5216 0.9040
vt 0.5313 0.8989
vt 0.5419 0.8676
vt 0.9083 0.4538
vt 0.8429 0.4538
vt 0.8756 0.3748
vt 0.8429 0.2958
vt 0.9084 0.2958
vt 0.7966 0.4075
vt 0.7966 0.3421
vt 0.9546 0.4075
vt 0.9546 0.3421
vt 0.5696 0.3051
vt 0.5504 0.2860
vt 0.5662 0.4859
vt 0.5808 0.3258
vt 0.5882 0.3499
vt 0.6121 0.3775
vt 0.5637 0.3097
vt 0.5468 0.2944
vt 0.6193 0.3775
vt 0.5799 0.3517
vt 0.5736 0.3290
vt 0.5724 0.4884
vt 0.1814 0.0860
vt 0.0329 0.0813
vt 0.0340 0.0479
vt 0.1855 0.0527
vt 0.3748 0.5270
vt 0.4728 0.5270
vt 0.4324 0.5666
vt 0.3748 0.5683
vt 0.2720 0.5271
vt 0.3134 0.5671
vt 0.1837 0.1939
vt 0.0337 0.1976
vt 0.0329 0.1645
vt 0.1802 0.1608
vt 0.1841 0.0765
vt 0.2010 0.1232
vt 0.1561 0.1233
vt 0.1491 0.0856
vt 0.4948 0.7759
vt 0.4946 0.8711
vt 0.4694 0.8756
vt 0.4661 0.7824
vt 0.1846 0.1705
vt 0.1493 0.1612
vt 0.1587 0.1946
vt 0.2095 0.0977
vt 0.2153 0.0584
vt 0.1188 0.1657
vt 0.0908 0.1750
vt 0.0824 0.1252
vt 0.1144 0.1252
vt 0.0908 0.0754
vt 0.1188 0.0847
vt 0.2134 0.1889
vt 0.2086 0.1498
vt 0.4324 0.6941
vt 0.3748 0.6902
vt 0.3134 0.6944
vt 0.4728 0.7301
vt 0.3748 0.7295
vt 0.2720 0.7313
vt 0.1588 0.0529
vt 0.4661 0.9688
vt 0.3741 0.8756
vt 0.0785 0.1940
vt 0.0882 0.1613
vt 0.2536 0.8801
vt 0.2788 0.8756
vt 0.2821 0.9688
vt 0.2534 0.9753
vt 0.1797 0.1613
vt 0.0329 0.1641
vt 0.1829 0.1938
vt 0.0336 0.1971
vt 0.3748 0.5270
vt 0.3748 0.5683
vt 0.4324 0.5666
vt 0.4728 0.5270
vt 0.2720 0.5271
vt 0.3134 0.5671
vt 0.1848 0.0528
vt 0.1810 0.0854
vt 0.0329 0.0818
vt 0.0338 0.0485
vt 0.0528 0.0764
vt 0.0880 0.0857
vt 0.0812 0.1236
vt 0.0363 0.1237
vt 0.2960 0.9944
vt 0.4522 0.9944
vt 0.2534 0.7759
vt 0.2821 0.7824
vt 0.2536 0.8711
vt 0.0533 0.1704
vt 0.2072 0.1510
vt 0.2118 0.1890
vt 0.1190 0.1657
vt 0.1234 0.1252
vt 0.1554 0.1252
vt 0.1470 0.1750
vt 0.1190 0.0847
vt 0.1470 0.0754
vt 0.2138 0.0583
vt 0.2082 0.0965
vt 0.3748 0.6902
vt 0.4324 0.6941
vt 0.3134 0.6944
vt 0.4728 0.7301
vt 0.3748 0.7295
vt 0.2720 0.7313
vt 0.0786 0.0523
vt 0.4522 0.7568
vt 0.2960 0.7568
vt 0.4946 0.8801
vt 0.4948 0.9753
vt 0.8287 0.9138
vt 0.7784 0.8855
vt 0.7969 0.8606
vt 0.8287 0.8539
vt 0.8604 0.8606
vt 0.8789 0.8855
vt 0.7784 0.9420
vt 0.7969 0.9669
vt 0.8287 0.9737
vt 0.8604 0.9669
vt 0.8789 0.9420
vt 0.6224 0.4383
vt 0.5961 0.4367
vt 0.5967 0.4257
vt 0.6222 0.4282
vt 0.5702 0.4047
vt 0.5702 0.3587
vt 0.5808 0.3583
vt 0.5809 0.4051
vt 0.5876 0.4364
vt 0.5698 0.4125
vt 0.6737 0.3584
vt 0.6737 0.4044
vt 0.6631 0.4048
vt 0.6630 0.3580
vt 0.5872 0.3274
vt 0.5956 0.3271
vt 0.5962 0.3377
vt 0.6215 0.3248
vt 0.6478 0.3264
vt 0.6472 0.3374
vt 0.6218 0.3349
vt 0.6741 0.3506
vt 0.6220 0.3816
vt 0.6477 0.4254
vt 0.6563 0.3267
vt 0.5698 0.3510
vt 0.6741 0.4121
vt 0.6567 0.4357
vt 0.6484 0.4361
vt 0.2640 0.5973
vt 0.3594 0.5973
vt 0.3594 0.6051
vt 0.2640 0.6051
vt 0.3594 0.6129
vt 0.2640 0.6129
vt 0.3594 0.6207
vt 0.2640 0.6207
vt 0.3594 0.6285
vt 0.2640 0.6285
vt 0.3594 0.6363
vt 0.2640 0.6363
vt 0.3563 0.7333
vt 0.3599 0.7297
vt 0.3650 0.7297
vt 0.3687 0.7333
vt 0.3687 0.7384
vt 0.3650 0.7421
vt 0.3599 0.7421
vt 0.3563 0.7384
vt 0.2640 0.5895
vt 0.3594 0.5895
vt 0.2640 0.6285
vt 0.3594 0.6285
vt 0.3594 0.6363
vt 0.2640 0.6363
vt 0.2640 0.6207
vt 0.3594 0.6207
vt 0.2640 0.6129
vt 0.3594 0.6129
vt 0.2640 0.6051
vt 0.3594 0.6051
vt 0.3563 0.7333
vt 0.3599 0.7297
vt 0.3650 0.7297
vt 0.3687 0.7333
vt 0.3687 0.7384
vt 0.3650 0.7421
vt 0.3599 0.7421
vt 0.3563 0.7384
vt 0.2640 0.5895
vt 0.3594 0.5895
vt 0.3594 0.5973
vt 0.2640 0.5973
vt 0.2640 0.5973
vt 0.3594 0.5973
vt 0.3594 0.6051
vt 0.2640 0.6051
vt 0.3594 0.6129
vt 0.2640 0.6129
vt 0.3594 0.6207
vt 0.2640 0.6207
vt 0.3594 0.6285
vt 0.2640 0.6285
vt 0.3594 0.6363
vt 0.2640 0.6363
vt 0.3563 0.7333
vt 0.3599 0.7297
vt 0.3650 0.7297
vt 0.3687 0.7333
vt 0.3687 0.7384
vt 0.3650 0.7421
vt 0.3599 0.7421
vt 0.3563 0.7384
vt 0.2640 0.5895
vt 0.3594 0.5895
vt 0.2640 0.6285
vt 0.3594 0.6285
vt 0.3594 0.6363
vt 0.2640 0.6363
vt 0.2640 0.6207
vt 0.3594 0.6207
vt 0.2640 0.6129
vt 0.3594 0.6129
vt 0.2640 0.6051
vt 0.3594 0.6051
vt 0.3563 0.7333
vt 0.3599 0.7297
vt 0.3650 0.7297
vt 0.3687 0.7333
vt 0.3687 0.7384
vt 0.3650 0.7421
vt 0.3599 0.7421
vt 0.3563 0.7384
vt 0.2640 0.5895
vt 0.3594 0.5895
vt 0.3594 0.5973
vt 0.2640 0.5973
vn 0.0000 -0.9478 -0.3187
vn -0.6702 -0.6702 -0.3186
vn -0.7071 -0.7071 0.0000
vn 0.0000 -1.0000 0.0000
vn -0.9478 -0.0001 -0.3188
vn -1.0000 -0.0002 0.0000
vn -0.6703 0.6701 -0.3188
vn -0.7072 0.7070 0.0000
vn 0.0000 0.9478 -0.3189
vn 0.0000 1.0000 0.0000
vn 0.6703 0.6701 -0.3188
vn 0.7072 0.7070 0.0000
vn 0.9478 -0.0001 -0.3188
vn 1.0000 -0.0002 0.0000
vn 0.6702 -0.6702 -0.3186
vn 0.7071 -0.7071 0.0000
vn 0.7034 -0.7035 -0.1016
vn 0.0000 -0.9948 -0.1015
vn -0.9948 -0.0002 -0.1016
vn -0.7035 0.7034 -0.1017
vn -0.5474 0.5472 0.6331
vn 0.0000 0.7739 0.6333
vn 0.0000 0.7662 0.6426
vn -0.5419 0.5417 0.6425
vn 0.7035 0.7034 -0.1017
vn 0.9948 -0.0002 -0.1016
vn -0.7740 -0.0002 0.6332
vn -0.7662 -0.0002 0.6425
vn -0.7034 -0.7035 -0.1016
vn -0.5472 -0.5473 0.6332
vn -0.5418 -0.5418 0.6425
vn 0.0000 -0.7738 0.6334
vn 0.0000 -0.7662 0.6426
vn 0.0000 -0.7538 0.6571
vn -0.5329 -0.5331 0.6571
vn 0.5472 -0.5473 0.6332
vn 0.7740 -0.0002 0.6332
vn 0.7537 -0.0002 0.6572
vn 0.5329 -0.5331 0.6571
vn 0.5474 0.5472 0.6331
vn 0.0000 0.7537 0.6572
vn 0.5330 0.5328 0.6572
vn -0.5330 0.5328 0.6572
vn -0.7537 -0.0002 0.6572
vn -0.3642 -0.3641 0.8572
vn -0.5148 -0.0001 0.8573
vn -0.3642 0.3640 0.8572
vn 0.0000 0.5147 0.8574
vn 0.5148 -0.0001 0.8573
vn 0.3642 -0.3641 0.8572
vn 0.3642 0.3640 0.8572
vn 0.0000 -0.5148 0.8573
vn 0.0000 0.0000 1.0000
vn 0.5418 -0.5418 0.6425
vn 0.7662 -0.0002 0.6425
vn 0.5419 0.5417 0.6425
vn 0.0000 0.9948 -0.1017
vn 0.3751 -0.9053 0.1992
vn 0.3206 -0.8185 -0.4767
vn 0.5556 -0.5502 -0.6233
vn 0.6500 -0.6656 0.3666
vn 0.5435 0.0000 0.8394
vn 0.7039 -0.4830 0.5208
vn 0.7787 0.0000 0.6274
vn 0.6500 0.6656 0.3666
vn 0.7039 0.4830 0.5208
vn 0.5556 0.5502 -0.6233
vn 0.3206 0.8185 -0.4767
vn 0.3751 0.9053 0.1992
vn 0.4476 0.0000 -0.8942
vn 0.8232 0.0000 -0.5677
vn 0.4230 0.5660 -0.7075
vn 0.7570 0.0000 -0.6534
vn 0.5441 0.5941 -0.5925
vn 0.4230 -0.5660 -0.7075
vn 0.1654 -0.6037 0.7798
vn 0.5057 -0.3227 0.8001
vn 0.5712 0.0000 0.8208
vn 0.5057 0.3227 0.8001
vn 0.1654 0.6037 0.7798
vn 0.7658 -0.5068 -0.3959
vn 0.8666 0.0000 -0.4990
vn 0.7658 0.5068 -0.3959
vn 0.5441 -0.5941 -0.5925
vn 0.0000 0.0000 -1.0000
vn -0.3206 -0.8185 -0.4767
vn -0.4230 -0.5660 -0.7075
vn -0.8232 0.0000 -0.5677
vn -0.7570 0.0000 -0.6534
vn -0.5441 -0.5941 -0.5925
vn -0.3751 -0.9053 0.1992
vn -0.6500 -0.6656 0.3666
vn -0.5556 -0.5502 -0.6233
vn -0.5435 0.0000 0.8394
vn -0.7787 0.0000 0.6274
vn -0.7039 -0.4830 0.5208
vn -0.6500 0.6656 0.3666
vn -0.7039 0.4830 0.5208
vn -0.3751 0.9053 0.1992
vn -0.3206 0.8185 -0.4767
vn -0.5556 0.5502 -0.6233
vn -0.4230 0.5660 -0.7075
vn -0.4476 0.0000 -0.8942
vn -0.5441 0.5941 -0.5925
vn -0.1654 -0.6037 0.7798
vn -0.5057 -0.3227 0.8001
vn -0.5712 0.0000 0.8208
vn -0.5057 0.3227 0.8001
vn -0.1654 0.6037 0.7798
vn -0.8666 0.0000 -0.4990
vn -0.7658 -0.5068 -0.3959
vn -0.7658 0.5068 -0.3959
vn -0.9092 0.0000 0.4162
vn -0.8275 0.5208 0.2095
vn -0.4752 -0.1796 0.8613
vn -0.5875 0.0000 0.8092
vn 0.6002 -0.7814 0.1705
vn -0.6002 -0.7814 0.1705
vn 0.0537 -0.5309 0.8457
vn -0.0537 -0.5309 0.8457
vn -0.6666 -0.0685 0.7422
vn 0.0286 -0.7176 0.6958
vn -0.6002 0.7814 0.1705
vn 0.6002 0.7814 0.1705
vn -0.0537 0.5309 0.8457
vn 0.0537 0.5309 0.8457
vn 0.6666 -0.0685 0.7422
vn 0.8275 0.5208 0.2095
vn 0.4752 -0.1796 0.8613
vn 0.9092 0.0000 0.4162
vn 0.8275 -0.5208 0.2095
vn 0.4752 0.1796 0.8613
vn 0.5875 0.0000 0.8092
vn -0.0286 0.7176 0.6958
vn -0.4752 0.1796 0.8613
vn 0.6666 0.0685 0.7422
vn -0.0286 -0.7176 0.6958
vn 0.0286 0.7176 0.6958
vn -0.6666 0.0685 0.7422
vn -0.8275 -0.5208 0.2095
vn -0.7071 0.7071 0.0000
vn -0.5490 0.5490 0.6302
vn 0.0000 0.7764 0.6302
vn 0.5490 0.5490 0.6302
vn 0.7071 0.7071 0.0000
vn 0.7764 0.0000 0.6302
vn 1.0000 0.0000 0.0000
vn 0.5490 -0.5490 0.6302
vn 0.2123 -0.5125 0.8320
vn 0.3827 -0.9239 0.0000
vn -0.5125 0.2123 0.8320
vn -0.9239 0.3827 0.0000
vn -0.2123 0.5125 0.8320
vn -0.3827 0.9239 0.0000
vn -1.0000 0.0000 0.0000
vn -0.7764 0.0000 0.6302
vn -0.5490 -0.5490 0.6302
vn 0.0000 -0.7764 0.6302
vn 0.5125 -0.2123 0.8320
vn 0.9239 -0.3827 0.0000
vn -0.5125 -0.2123 0.8320
vn -0.9239 -0.3827 0.0000
vn 0.2123 0.5125 0.8320
vn 0.3827 0.9239 0.0000
vn 0.5125 0.2123 0.8320
vn 0.9239 0.3827 0.0000
vn -0.2123 -0.5125 0.8320
vn -0.3827 -0.9239 0.0000
usemtl structuresTex.jpg
s 1
f 1/1/1 2/2/2 3/3/3 4/4/4
f 2/2/2 5/5/5 6/6/6 3/3/3
f 5/5/5 7/7/7 8/8/8 6/6/6
f 7/7/7 9/9/9 10/10/10 8/8/8
f 9/9/9 11/11/11 12/12/12 10/10/10
f 11/11/11 13/13/13 14/14/14 12/12/12
f 15/15/15 1/16/1 4/17/4 16/18/16
f 13/13/13 15/15/15 16/18/16 14/14/14
f 1/19/1 15/20/15 49/21/17 42/22/18
f 7/23/7 5/24/5 44/25/19 45/26/20
f 20/27/21 21/28/22 54/29/23 53/30/24
f 13/31/13 11/32/11 47/33/25 48/34/26
f 19/35/27 20/27/21 53/30/24 52/36/28
f 5/24/5 2/37/2 43/38/29 44/25/19
f 18/39/30 19/35/27 52/36/28 51/40/31
f 17/41/32 18/39/30 51/40/31 50/42/33
f 18/43/30 17/44/32 25/45/34 26/46/35
f 24/47/36 23/48/37 31/49/38 32/50/39
f 22/51/40 21/52/22 29/53/41 30/54/42
f 21/52/22 20/55/21 28/56/43 29/53/41
f 19/57/27 18/43/30 26/46/35 27/58/44
f 23/48/37 22/51/40 30/54/42 31/49/38
f 17/59/32 24/47/36 32/50/39 25/60/34
f 20/55/21 19/57/27 27/58/44 28/56/43
f 31/49/38 30/54/42 38/61/45 39/62/46
f 25/60/34 32/50/39 40/63/47 33/64/48
f 28/56/43 27/58/44 35/65/49 36/66/50
f 26/46/35 25/45/34 33/67/48 34/68/51
f 32/50/39 31/49/38 39/62/46 40/63/47
f 30/54/42 29/53/41 37/69/52 38/61/45
f 29/53/41 28/56/43 36/66/50 37/69/52
f 27/58/44 26/46/35 34/68/51 35/65/49
f 35/70/49 34/71/51 41/72/53
f 39/73/46 38/74/45 41/72/53
f 33/75/48 40/76/47 41/72/53
f 36/77/50 35/70/49 41/72/53
f 34/71/51 33/75/48 41/72/53
f 40/76/47 39/73/46 41/72/53
f 38/74/45 37/78/52 41/72/53
f 37/78/52 36/77/50 41/72/53
f 42/22/18 49/21/17 57/79/54 50/80/33
f 45/26/20 44/25/19 52/36/28 53/30/24
f 44/25/19 43/38/29 51/40/31 52/36/28
f 43/38/29 42/81/18 50/42/33 51/40/31
f 49/21/17 48/34/26 56/82/55 57/79/54
f 48/34/26 47/33/25 55/83/56 56/82/55
f 46/84/57 45/26/20 53/30/24 54/29/23
f 47/33/25 46/84/57 54/29/23 55/83/56
f 24/85/36 17/86/32 50/80/33 57/79/54
f 9/87/9 7/23/7 45/26/20 46/84/57
f 15/20/15 13/31/13 48/34/26 49/21/17
f 21/28/22 22/88/40 55/83/56 54/29/23
f 11/32/11 9/87/9 46/84/57 47/33/25
f 22/88/40 23/89/37 56/82/55 55/83/56
f 2/37/2 1/90/1 42/81/18 43/38/29
f 23/89/37 24/85/36 57/79/54 56/82/55
f 96/91/58 88/92/59 89/93/60 97/94/61
f 98/95/62 97/96/61 104/97/63 105/98/64
f 99/99/65 98/95/62 105/98/64 106/100/66
f 99/101/65 91/102/67 92/103/68 100/104/69
f 91/105/67 90/106/70 94/107/71 95/108/72
f 95/109/72 94/110/71 114/111/73 115/112/74
f 90/106/70 89/113/60 93/114/75 94/107/71
f 89/113/60 88/115/59 93/114/75
f 107/116/76 96/91/58 97/94/61 108/117/77
f 108/118/77 97/119/61 98/120/62 109/121/78
f 109/121/78 98/120/62 99/122/65 110/123/79
f 110/124/79 99/101/65 100/104/69 111/125/80
f 104/97/63 101/126/81 102/127/82 105/98/64
f 105/98/64 102/127/82 103/128/83 106/100/66
f 97/96/61 89/129/60 101/126/81 104/97/63
f 89/129/60 90/130/70 102/127/82 101/126/81
f 91/131/67 99/99/65 106/100/66 103/128/83
f 90/130/70 91/131/67 103/128/83 102/127/82
f 92/132/68 91/105/67 95/108/72
f 114/111/73 113/133/84 143/134/85
f 115/112/74 114/111/73 143/134/85
f 116/135/86 121/136/87 93/114/75 88/115/59
f 122/137/88 141/138/89 140/139/90 121/140/87
f 96/91/58 124/141/91 116/142/86 88/92/59
f 124/141/91 125/143/92 117/144/93 116/142/86
f 126/145/94 133/146/95 132/147/96 125/148/92
f 127/149/97 134/150/98 133/146/95 126/145/94
f 127/151/97 128/152/99 120/153/100 119/154/101
f 119/155/101 123/156/102 122/157/88 118/158/103
f 140/139/90 143/134/85 113/133/84
f 121/159/87 140/139/90 113/133/84 93/160/75
f 123/161/102 142/162/104 141/138/89 122/163/88
f 118/158/103 122/157/88 121/136/87 117/164/93
f 117/164/93 121/136/87 116/135/86
f 135/165/105 136/166/106 125/143/92 124/141/91
f 136/167/106 137/168/107 126/169/94 125/170/92
f 137/168/107 138/171/108 127/172/97 126/169/94
f 138/173/108 139/174/109 128/152/99 127/151/97
f 128/152/99 100/104/69 92/103/68 120/153/100
f 132/147/96 133/146/95 130/175/110 129/176/111
f 133/146/95 134/150/98 131/177/112 130/175/110
f 125/148/92 132/147/96 129/176/111 117/178/93
f 117/178/93 129/176/111 130/175/110 118/179/103
f 119/180/101 131/177/112 134/150/98 127/149/97
f 118/179/103 130/175/110 131/177/112 119/180/101
f 120/181/100 123/156/102 119/155/101
f 141/138/89 143/134/85 140/139/90
f 142/162/104 143/134/85 141/138/89
f 135/165/105 124/141/91 96/91/58 107/116/76
f 92/132/68 95/108/72 123/156/102 120/181/100
f 139/174/109 111/125/80 100/104/69 128/152/99
f 95/182/72 115/112/74 142/162/104 123/183/102
f 115/112/74 143/134/85 142/162/104
f 94/184/71 93/185/75 113/133/84 114/111/73
f 112/186/53 107/187/76 108/188/77
f 112/186/53 108/188/77 109/189/78
f 112/186/53 109/189/78 110/190/79
f 112/186/53 110/190/79 111/191/80
f 112/186/53 135/192/105 107/187/76
f 112/186/53 136/193/106 135/192/105
f 112/186/53 137/194/107 136/193/106
f 112/186/53 138/195/108 137/194/107
f 112/186/53 139/196/109 138/195/108
f 112/186/53 111/191/80 139/196/109
f 152/197/113 151/198/114 170/199/115 171/200/116
f 150/201/117 145/202/118 164/203/119 162/204/120
f 159/205/121 161/206/122 162/204/120 170/199/115
f 149/207/123 154/208/124 172/209/125 168/210/126
f 157/211/127 146/212/128 166/213/129
f 147/214/130 148/215/131 165/216/132 167/217/133
f 144/218/134 149/207/123 168/210/126
f 169/219/53 164/203/119 166/213/129
f 169/219/53 166/213/129 167/217/133
f 169/219/53 167/217/133 165/216/132
f 169/219/53 165/216/132 168/210/126
f 169/219/53 162/204/120 164/203/119
f 169/219/53 170/199/115 162/204/120
f 169/219/53 171/200/116 170/199/115
f 169/219/53 163/220/135 171/200/116
f 169/219/53 172/209/125 163/220/135
f 169/219/53 168/210/126 172/209/125
f 155/221/136 144/218/134 168/210/126 165/216/132
f 158/222/137 157/211/127 166/213/129 164/203/119
f 156/223/138 160/224/139 163/220/135 172/209/125
f 161/206/122 150/201/117 162/204/120
f 153/225/140 152/197/113 171/200/116 163/220/135
f 146/212/128 147/214/130 167/217/133 166/213/129
f 160/224/139 153/225/140 163/220/135
f 154/208/124 156/223/138 172/209/125
f 145/202/118 158/222/137 164/203/119
f 151/198/114 159/205/121 170/199/115
f 148/215/131 155/221/136 165/216/132
usemtl structuresTex.jpg_tex.jpg
f 58/226/141 59/227/142 61/228/143 60/229/10
f 60/229/10 61/228/143 63/230/144 62/231/145
f 62/231/145 63/230/144 65/232/146 64/233/147
f 64/233/147 65/232/146 67/234/148 66/235/16
f 66/235/16 67/234/148 69/236/149 68/237/150
f 61/238/143 59/239/142 72/240/151 70/241/53 69/242/149 67/243/148 65/244/146 63/245/144
f 71/246/152 72/247/151 59/227/142 58/226/141
f 79/248/141 78/249/142 76/250/153 77/251/154
f 81/252/155 80/253/156 78/249/142 79/248/141
f 83/254/3 82/255/157 80/253/156 81/252/155
f 85/256/4 84/257/158 82/255/157 83/254/3
f 84/258/158 86/259/148 73/260/159 75/261/53 76/262/153 78/263/142 80/264/156 82/265/157
f 74/266/160 73/267/159 86/268/148 87/269/16
f 87/269/16 86/268/148 84/257/158 85/256/4
f 173/270/145 174/271/144 176/272/146 175/273/147
f 175/273/147 176/272/146 178/274/148 177/275/16
f 177/275/16 178/274/148 180/276/158 179/277/4
f 179/277/4 180/276/158 182/278/157 181/279/3
f 181/279/3 182/278/157 184/280/161 183/281/162
f 176/282/146 174/283/144 187/284/163 185/285/53 184/286/161 182/287/157 180/288/158 178/289/148
f 186/290/164 187/291/163 174/271/144 173/270/145
f 194/292/145 193/293/144 191/294/165 192/295/166
f 196/296/10 195/297/143 193/293/144 194/292/145
f 198/298/141 197/299/142 195/297/143 196/296/10
f 200/300/155 199/301/156 197/299/142 198/298/141
f 199/302/156 201/303/157 188/304/167 190/305/53 191/306/165 193/307/144 195/308/143 197/309/142
f 189/310/168 188/311/167 201/312/157 202/313/3
f 202/313/3 201/312/157 199/301/156 200/300/155
