# Blender v2.77 (sub 0) OBJ File: 'modules.blend'
# www.blender.org
mtllib RawM.mtl
o Cylinder.002_Cylinder.021
v -0.228668 0.134088 -0.215475
v -0.228668 0.134088 0.215475
v -0.204167 0.159884 -0.215475
v -0.204167 0.159884 0.215475
v -0.170050 0.169973 -0.215475
v -0.170050 0.169973 0.215475
v -0.135460 0.161653 -0.215475
v -0.135460 0.161653 0.215475
v -0.109664 0.137152 -0.215475
v -0.109664 0.137152 0.215475
v -0.099575 0.103035 -0.215475
v -0.099575 0.103035 0.215475
v -0.107895 0.068445 -0.215475
v -0.107895 0.068445 0.215475
v -0.132396 0.042649 -0.215475
v -0.132396 0.042649 0.215475
v -0.166513 0.032560 -0.215475
v -0.166513 0.032560 0.215475
v -0.201103 0.040880 -0.215475
v -0.201103 0.040881 0.215475
v -0.226899 0.065381 -0.215475
v -0.226899 0.065381 0.215475
v -0.236988 0.099498 -0.215475
v -0.236988 0.099498 0.215475
v 0.001489 0.169996 -0.215475
v 0.001489 0.169996 0.215475
v 0.035854 0.160788 -0.215475
v 0.035854 0.160788 0.215475
v 0.061010 0.135631 -0.215475
v 0.061010 0.135631 0.215475
v 0.070218 0.101267 -0.215475
v 0.070218 0.101267 0.215475
v 0.061010 0.066902 -0.215475
v 0.061010 0.066902 0.215475
v 0.035854 0.041745 -0.215475
v 0.035854 0.041745 0.215475
v 0.001489 0.032537 -0.215475
v 0.001489 0.032537 0.215475
v -0.032876 0.041745 -0.215475
v -0.032876 0.041745 0.215475
v -0.058032 0.066902 -0.215475
v -0.058032 0.066902 0.215475
v -0.067240 0.101267 -0.215475
v -0.067240 0.101267 0.215475
v -0.058032 0.135631 -0.215475
v -0.058032 0.135631 0.215475
v -0.032876 0.160788 -0.215475
v -0.032876 0.160788 0.215475
v 0.235989 0.124371 -0.215475
v 0.235989 0.124371 0.215475
v 0.238869 0.088910 -0.215475
v 0.238869 0.088910 0.215475
v 0.223633 0.056761 -0.215475
v 0.223633 0.056761 0.215475
v 0.194363 0.036537 -0.215475
v 0.194363 0.036537 0.215475
v 0.158903 0.033657 -0.215475
v 0.158903 0.033657 0.215475
v 0.126754 0.048893 -0.215475
v 0.126754 0.048893 0.215475
v 0.106530 0.078163 -0.215475
v 0.106530 0.078163 0.215475
v 0.103650 0.113623 -0.215475
v 0.103650 0.113623 0.215475
v 0.118886 0.145772 -0.215475
v 0.118886 0.145772 0.215475
v 0.148155 0.165996 -0.215475
v 0.148156 0.165996 0.215475
v 0.183616 0.168876 -0.215475
v 0.183616 0.168876 0.215475
v 0.215765 0.153640 -0.215475
v 0.215765 0.153640 0.215475
v -0.156389 -0.045339 -0.215475
v -0.156389 -0.045339 0.215475
v -0.144561 -0.011785 -0.215475
v -0.144561 -0.011785 0.215475
v -0.117541 0.011359 -0.215475
v -0.117541 0.011359 0.215475
v -0.082569 0.017892 -0.215475
v -0.082569 0.017892 0.215475
v -0.049016 0.006064 -0.215475
v -0.049016 0.006064 0.215475
v -0.025872 -0.020956 -0.215475
v -0.025872 -0.020956 0.215475
v -0.019339 -0.055928 -0.215475
v -0.019339 -0.055928 0.215475
v -0.031167 -0.089481 -0.215475
v -0.031167 -0.089481 0.215475
v -0.058186 -0.112625 -0.215475
v -0.058187 -0.112625 0.215475
v -0.093158 -0.119158 -0.215475
v -0.093158 -0.119158 0.215475
v -0.126712 -0.107331 -0.215475
v -0.126712 -0.107331 0.215475
v -0.149856 -0.080311 -0.215475
v -0.149856 -0.080311 0.215475
v 0.137130 -0.091549 -0.215475
v 0.137130 -0.091549 0.215475
v 0.109273 -0.113679 -0.215475
v 0.109274 -0.113679 0.215475
v 0.074084 -0.118916 -0.215475
v 0.074084 -0.118916 0.215475
v 0.040991 -0.105857 -0.215475
v 0.040991 -0.105857 0.215475
v 0.018861 -0.078000 -0.215475
v 0.018861 -0.078000 0.215475
v 0.013624 -0.042811 -0.215475
v 0.013624 -0.042811 0.215475
v 0.026683 -0.009717 -0.215475
v 0.026683 -0.009717 0.215475
v 0.054540 0.012413 -0.215475
v 0.054540 0.012413 0.215475
v 0.089729 0.017650 -0.215475
v 0.089729 0.017650 0.215475
v 0.122822 0.004590 -0.215475
v 0.122823 0.004590 0.215475
v 0.144952 -0.023266 -0.215475
v 0.144953 -0.023266 0.215475
v 0.150189 -0.058456 -0.215475
v 0.150190 -0.058456 0.215475
v 0.013882 -0.270136 -0.215475
v 0.013882 -0.270136 0.215475
v -0.021580 -0.267275 -0.215475
v -0.021580 -0.267275 0.215475
v -0.050861 -0.247067 -0.215475
v -0.050861 -0.247067 0.215475
v -0.066114 -0.214926 -0.215475
v -0.066114 -0.214926 0.215475
v -0.063253 -0.179464 -0.215475
v -0.063253 -0.179464 0.215475
v -0.043045 -0.150183 -0.215475
v -0.043045 -0.150184 0.215475
v -0.010903 -0.134930 -0.215475
v -0.010903 -0.134930 0.215475
v 0.024558 -0.137791 -0.215475
v 0.024558 -0.137791 0.215475
v 0.053839 -0.157999 -0.215475
v 0.053839 -0.157999 0.215475
v 0.069092 -0.190141 -0.215475
v 0.069092 -0.190141 0.215475
v 0.066231 -0.225602 -0.215475
v 0.066231 -0.225602 0.215475
v 0.046023 -0.254883 -0.215475
v 0.046023 -0.254883 0.215475
vt 0.5806 0.8702
vt 0.5046 0.8702
vt 0.5046 0.8626
vt 0.5806 0.8626
vt 0.5046 0.8550
vt 0.5806 0.8550
vt 0.5046 0.8474
vt 0.5806 0.8474
vt 0.5046 0.8398
vt 0.5806 0.8398
vt 0.5046 0.8322
vt 0.5806 0.8322
vt 0.5046 0.8246
vt 0.5806 0.8246
vt 0.5806 0.9159
vt 0.5046 0.9159
vt 0.5046 0.9082
vt 0.5806 0.9082
vt 0.5046 0.9006
vt 0.5806 0.9006
vt 0.5046 0.8930
vt 0.5806 0.8930
vt 0.5046 0.8854
vt 0.5806 0.8854
vt 0.3168 0.6898
vt 0.3115 0.6843
vt 0.3096 0.6770
vt 0.3117 0.6696
vt 0.3172 0.6643
vt 0.3245 0.6625
vt 0.3318 0.6645
vt 0.3372 0.6700
vt 0.3390 0.6774
vt 0.3370 0.6847
vt 0.3315 0.6900
vt 0.3241 0.6919
vt 0.5046 0.8778
vt 0.5806 0.8778
vt 0.4267 0.5731
vt 0.4320 0.5785
vt 0.4339 0.5859
vt 0.4318 0.5932
vt 0.4263 0.5985
vt 0.4190 0.6004
vt 0.4117 0.5983
vt 0.4063 0.5929
vt 0.4045 0.5855
vt 0.4065 0.5782
vt 0.4120 0.5729
vt 0.4194 0.5710
vt 0.5806 0.8702
vt 0.5046 0.8702
vt 0.5046 0.8626
vt 0.5806 0.8626
vt 0.5046 0.8550
vt 0.5806 0.8550
vt 0.5046 0.8474
vt 0.5806 0.8474
vt 0.5046 0.8398
vt 0.5806 0.8398
vt 0.5046 0.8322
vt 0.5806 0.8322
vt 0.5046 0.8246
vt 0.5806 0.8246
vt 0.5806 0.9159
vt 0.5046 0.9159
vt 0.5046 0.9082
vt 0.5806 0.9082
vt 0.5046 0.9006
vt 0.5806 0.9006
vt 0.5046 0.8930
vt 0.5806 0.8930
vt 0.5046 0.8854
vt 0.5806 0.8854
vt 0.3168 0.6898
vt 0.3115 0.6843
vt 0.3096 0.6770
vt 0.3117 0.6696
vt 0.3172 0.6643
vt 0.3245 0.6625
vt 0.3318 0.6645
vt 0.3372 0.6700
vt 0.3390 0.6774
vt 0.3370 0.6847
vt 0.3315 0.6900
vt 0.3241 0.6919
vt 0.5046 0.8778
vt 0.5806 0.8778
vt 0.4267 0.5731
vt 0.4320 0.5785
vt 0.4339 0.5859
vt 0.4318 0.5932
vt 0.4263 0.5985
vt 0.4190 0.6004
vt 0.4117 0.5983
vt 0.4063 0.5929
vt 0.4045 0.5855
vt 0.4065 0.5782
vt 0.4120 0.5729
vt 0.4194 0.5710
vt 0.5806 0.8702
vt 0.5046 0.8702
vt 0.5046 0.8626
vt 0.5806 0.8626
vt 0.5046 0.8550
vt 0.5806 0.8550
vt 0.5046 0.8474
vt 0.5806 0.8474
vt 0.5046 0.8398
vt 0.5806 0.8398
vt 0.5046 0.8322
vt 0.5806 0.8322
vt 0.5046 0.8246
vt 0.5806 0.8246
vt 0.5806 0.9159
vt 0.5046 0.9159
vt 0.5046 0.9082
vt 0.5806 0.9082
vt 0.5046 0.9006
vt 0.5806 0.9006
vt 0.5046 0.8930
vt 0.5806 0.8930
vt 0.5046 0.8854
vt 0.5806 0.8854
vt 0.3168 0.6898
vt 0.3115 0.6843
vt 0.3096 0.6770
vt 0.3117 0.6696
vt 0.3172 0.6643
vt 0.3245 0.6625
vt 0.3318 0.6645
vt 0.3372 0.6700
vt 0.3390 0.6774
vt 0.3370 0.6847
vt 0.3315 0.6900
vt 0.3241 0.6919
vt 0.5046 0.8778
vt 0.5806 0.8778
vt 0.4267 0.5731
vt 0.4320 0.5785
vt 0.4339 0.5859
vt 0.4318 0.5932
vt 0.4263 0.5985
vt 0.4190 0.6004
vt 0.4117 0.5983
vt 0.4063 0.5929
vt 0.4045 0.5855
vt 0.4065 0.5782
vt 0.4120 0.5729
vt 0.4194 0.5710
vt 0.5806 0.8702
vt 0.5046 0.8702
vt 0.5046 0.8626
vt 0.5806 0.8626
vt 0.5046 0.8550
vt 0.5806 0.8550
vt 0.5046 0.8474
vt 0.5806 0.8474
vt 0.5046 0.8398
vt 0.5806 0.8398
vt 0.5046 0.8322
vt 0.5806 0.8322
vt 0.5046 0.8246
vt 0.5806 0.8246
vt 0.5806 0.9159
vt 0.5046 0.9159
vt 0.5046 0.9082
vt 0.5806 0.9082
vt 0.5046 0.9006
vt 0.5806 0.9006
vt 0.5046 0.8930
vt 0.5806 0.8930
vt 0.5046 0.8854
vt 0.5806 0.8854
vt 0.3168 0.6898
vt 0.3115 0.6843
vt 0.3096 0.6770
vt 0.3117 0.6696
vt 0.3172 0.6643
vt 0.3245 0.6625
vt 0.3318 0.6645
vt 0.3372 0.6700
vt 0.3390 0.6774
vt 0.3370 0.6847
vt 0.3315 0.6900
vt 0.3241 0.6919
vt 0.5046 0.8778
vt 0.5806 0.8778
vt 0.4267 0.5731
vt 0.4320 0.5785
vt 0.4339 0.5859
vt 0.4318 0.5932
vt 0.4263 0.5985
vt 0.4190 0.6004
vt 0.4117 0.5983
vt 0.4063 0.5929
vt 0.4045 0.5855
vt 0.4065 0.5782
vt 0.4120 0.5729
vt 0.4194 0.5710
vt 0.5806 0.8702
vt 0.5046 0.8702
vt 0.5046 0.8626
vt 0.5806 0.8626
vt 0.5046 0.8550
vt 0.5806 0.8550
vt 0.5046 0.8474
vt 0.5806 0.8474
vt 0.5046 0.8398
vt 0.5806 0.8398
vt 0.5046 0.8322
vt 0.5806 0.8322
vt 0.5046 0.8246
vt 0.5806 0.8246
vt 0.5806 0.9159
vt 0.5046 0.9159
vt 0.5046 0.9082
vt 0.5806 0.9082
vt 0.5046 0.9006
vt 0.5806 0.9006
vt 0.5046 0.8930
vt 0.5806 0.8930
vt 0.5046 0.8854
vt 0.5806 0.8854
vt 0.3168 0.6898
vt 0.3115 0.6843
vt 0.3096 0.6770
vt 0.3117 0.6696
vt 0.3172 0.6643
vt 0.3245 0.6625
vt 0.3318 0.6645
vt 0.3372 0.6700
vt 0.3390 0.6774
vt 0.3370 0.6847
vt 0.3315 0.6900
vt 0.3241 0.6919
vt 0.5046 0.8778
vt 0.5806 0.8778
vt 0.4267 0.5731
vt 0.4320 0.5785
vt 0.4339 0.5859
vt 0.4318 0.5932
vt 0.4263 0.5985
vt 0.4190 0.6004
vt 0.4117 0.5983
vt 0.4063 0.5929
vt 0.4045 0.5855
vt 0.4065 0.5782
vt 0.4120 0.5729
vt 0.4194 0.5710
vt 0.5806 0.8702
vt 0.5046 0.8702
vt 0.5046 0.8626
vt 0.5806 0.8626
vt 0.5046 0.8550
vt 0.5806 0.8550
vt 0.5046 0.8474
vt 0.5806 0.8474
vt 0.5046 0.8398
vt 0.5806 0.8398
vt 0.5046 0.8322
vt 0.5806 0.8322
vt 0.5046 0.8246
vt 0.5806 0.8246
vt 0.5806 0.9159
vt 0.5046 0.9159
vt 0.5046 0.9082
vt 0.5806 0.9082
vt 0.5046 0.9006
vt 0.5806 0.9006
vt 0.5046 0.8930
vt 0.5806 0.8930
vt 0.5046 0.8854
vt 0.5806 0.8854
vt 0.3168 0.6898
vt 0.3115 0.6843
vt 0.3096 0.6770
vt 0.3117 0.6696
vt 0.3172 0.6643
vt 0.3245 0.6625
vt 0.3318 0.6645
vt 0.3372 0.6700
vt 0.3390 0.6774
vt 0.3370 0.6847
vt 0.3315 0.6900
vt 0.3241 0.6919
vt 0.5046 0.8778
vt 0.5806 0.8778
vt 0.4267 0.5731
vt 0.4320 0.5785
vt 0.4339 0.5859
vt 0.4318 0.5932
vt 0.4263 0.5985
vt 0.4190 0.6004
vt 0.4117 0.5983
vt 0.4063 0.5929
vt 0.4045 0.5855
vt 0.4065 0.5782
vt 0.4120 0.5729
vt 0.4194 0.5710
vn -0.7251 0.6887 -0.0000
vn -0.2836 0.9589 -0.0000
vn 0.2339 0.9723 -0.0000
vn 0.6887 0.7251 -0.0000
vn 0.9589 0.2836 0.0000
vn 0.9723 -0.2339 0.0000
vn 0.7251 -0.6887 0.0000
vn 0.2836 -0.9589 0.0000
vn -0.2339 -0.9723 0.0000
vn -0.6887 -0.7251 0.0000
vn 0.0000 0.0000 1.0000
vn -0.9589 -0.2836 -0.0000
vn -0.9723 0.2339 -0.0000
vn 0.0000 -0.0000 -1.0000
vn 0.2588 0.9659 -0.0000
vn 0.7071 0.7071 -0.0000
vn 0.9659 0.2588 -0.0000
vn 0.9659 -0.2588 0.0000
vn 0.7071 -0.7071 0.0000
vn 0.2588 -0.9659 0.0000
vn -0.2588 -0.9659 0.0000
vn -0.7071 -0.7071 0.0000
vn -0.9659 -0.2588 0.0000
vn -0.9659 0.2588 -0.0000
vn -0.7071 0.7071 -0.0000
vn -0.2588 0.9659 -0.0000
vn 0.9967 0.0809 -0.0000
vn 0.9037 -0.4283 -0.0000
vn 0.5685 -0.8227 -0.0000
vn 0.0809 -0.9967 0.0000
vn -0.4283 -0.9037 0.0000
vn -0.8227 -0.5685 0.0000
vn -0.9967 -0.0809 0.0000
vn -0.9037 0.4283 0.0000
vn -0.5685 0.8227 0.0000
vn -0.0809 0.9967 -0.0000
vn 0.4283 0.9037 -0.0000
vn 0.8227 0.5685 -0.0000
vn -0.9431 0.3325 -0.0000
vn -0.6505 0.7595 -0.0000
vn -0.1836 0.9830 -0.0000
vn 0.3325 0.9431 -0.0000
vn 0.7595 0.6505 0.0000
vn 0.9830 0.1836 0.0000
vn 0.9431 -0.3325 0.0000
vn 0.6505 -0.7595 0.0000
vn 0.1836 -0.9830 0.0000
vn -0.3325 -0.9431 0.0000
vn -0.7595 -0.6505 -0.0000
vn -0.9830 -0.1836 -0.0000
vn 0.6220 -0.7830 -0.0000
vn 0.1472 -0.9891 -0.0000
vn -0.3671 -0.9302 -0.0000
vn -0.7830 -0.6220 0.0000
vn -0.9891 -0.1472 0.0000
vn -0.9302 0.3671 0.0000
vn -0.6220 0.7830 0.0000
vn -0.1472 0.9891 0.0000
vn 0.3671 0.9302 -0.0000
vn 0.7830 0.6220 -0.0000
vn 0.9891 0.1472 -0.0000
vn 0.9302 -0.3671 -0.0000
vn -0.0804 -0.9968 -0.0000
vn -0.5680 -0.8230 -0.0000
vn -0.9034 -0.4287 -0.0000
vn -0.9968 0.0804 -0.0000
vn -0.8230 0.5680 0.0000
vn -0.4287 0.9034 0.0000
vn 0.0804 0.9968 0.0000
vn 0.5680 0.8230 0.0000
vn 0.9034 0.4287 0.0000
vn 0.9968 -0.0804 0.0000
vn 0.8230 -0.5680 -0.0000
vn 0.4287 -0.9034 -0.0000
usemtl None
s off
f 1/1/1 2/2/1 4/3/1 3/4/1
f 3/4/2 4/3/2 6/5/2 5/6/2
f 5/6/3 6/5/3 8/7/3 7/8/3
f 7/8/4 8/7/4 10/9/4 9/10/4
f 9/10/5 10/9/5 12/11/5 11/12/5
f 11/12/6 12/11/6 14/13/6 13/14/6
f 13/15/7 14/16/7 16/17/7 15/18/7
f 15/18/8 16/17/8 18/19/8 17/20/8
f 17/20/9 18/19/9 20/21/9 19/22/9
f 19/22/10 20/21/10 22/23/10 21/24/10
f 4/25/11 2/26/11 24/27/11 22/28/11 20/29/11 18/30/11 16/31/11 14/32/11 12/33/11 10/34/11 8/35/11 6/36/11
f 21/24/12 22/23/12 24/37/12 23/38/12
f 23/38/13 24/37/13 2/2/13 1/1/13
f 1/39/14 3/40/14 5/41/14 7/42/14 9/43/14 11/44/14 13/45/14 15/46/14 17/47/14 19/48/14 21/49/14 23/50/14
f 25/51/15 26/52/15 28/53/15 27/54/15
f 27/54/16 28/53/16 30/55/16 29/56/16
f 29/56/17 30/55/17 32/57/17 31/58/17
f 31/58/18 32/57/18 34/59/18 33/60/18
f 33/60/19 34/59/19 36/61/19 35/62/19
f 35/62/20 36/61/20 38/63/20 37/64/20
f 37/65/21 38/66/21 40/67/21 39/68/21
f 39/68/22 40/67/22 42/69/22 41/70/22
f 41/70/23 42/69/23 44/71/23 43/72/23
f 43/72/24 44/71/24 46/73/24 45/74/24
f 28/75/11 26/76/11 48/77/11 46/78/11 44/79/11 42/80/11 40/81/11 38/82/11 36/83/11 34/84/11 32/85/11 30/86/11
f 45/74/25 46/73/25 48/87/25 47/88/25
f 47/88/26 48/87/26 26/52/26 25/51/26
f 25/89/14 27/90/14 29/91/14 31/92/14 33/93/14 35/94/14 37/95/14 39/96/14 41/97/14 43/98/14 45/99/14 47/100/14
f 49/101/27 50/102/27 52/103/27 51/104/27
f 51/104/28 52/103/28 54/105/28 53/106/28
f 53/106/29 54/105/29 56/107/29 55/108/29
f 55/108/30 56/107/30 58/109/30 57/110/30
f 57/110/31 58/109/31 60/111/31 59/112/31
f 59/112/32 60/111/32 62/113/32 61/114/32
f 61/115/33 62/116/33 64/117/33 63/118/33
f 63/118/34 64/117/34 66/119/34 65/120/34
f 65/120/35 66/119/35 68/121/35 67/122/35
f 67/122/36 68/121/36 70/123/36 69/124/36
f 52/125/11 50/126/11 72/127/11 70/128/11 68/129/11 66/130/11 64/131/11 62/132/11 60/133/11 58/134/11 56/135/11 54/136/11
f 69/124/37 70/123/37 72/137/37 71/138/37
f 71/138/38 72/137/38 50/102/38 49/101/38
f 49/139/14 51/140/14 53/141/14 55/142/14 57/143/14 59/144/14 61/145/14 63/146/14 65/147/14 67/148/14 69/149/14 71/150/14
f 73/151/39 74/152/39 76/153/39 75/154/39
f 75/154/40 76/153/40 78/155/40 77/156/40
f 77/156/41 78/155/41 80/157/41 79/158/41
f 79/158/42 80/157/42 82/159/42 81/160/42
f 81/160/43 82/159/43 84/161/43 83/162/43
f 83/162/44 84/161/44 86/163/44 85/164/44
f 85/165/45 86/166/45 88/167/45 87/168/45
f 87/168/46 88/167/46 90/169/46 89/170/46
f 89/170/47 90/169/47 92/171/47 91/172/47
f 91/172/48 92/171/48 94/173/48 93/174/48
f 76/175/11 74/176/11 96/177/11 94/178/11 92/179/11 90/180/11 88/181/11 86/182/11 84/183/11 82/184/11 80/185/11 78/186/11
f 93/174/49 94/173/49 96/187/49 95/188/49
f 95/188/50 96/187/50 74/152/50 73/151/50
f 73/189/14 75/190/14 77/191/14 79/192/14 81/193/14 83/194/14 85/195/14 87/196/14 89/197/14 91/198/14 93/199/14 95/200/14
f 97/201/51 98/202/51 100/203/51 99/204/51
f 99/204/52 100/203/52 102/205/52 101/206/52
f 101/206/53 102/205/53 104/207/53 103/208/53
f 103/208/54 104/207/54 106/209/54 105/210/54
f 105/210/55 106/209/55 108/211/55 107/212/55
f 107/212/56 108/211/56 110/213/56 109/214/56
f 109/215/57 110/216/57 112/217/57 111/218/57
f 111/218/58 112/217/58 114/219/58 113/220/58
f 113/220/59 114/219/59 116/221/59 115/222/59
f 115/222/60 116/221/60 118/223/60 117/224/60
f 100/225/11 98/226/11 120/227/11 118/228/11 116/229/11 114/230/11 112/231/11 110/232/11 108/233/11 106/234/11 104/235/11 102/236/11
f 117/224/61 118/223/61 120/237/61 119/238/61
f 119/238/62 120/237/62 98/202/62 97/201/62
f 97/239/14 99/240/14 101/241/14 103/242/14 105/243/14 107/244/14 109/245/14 111/246/14 113/247/14 115/248/14 117/249/14 119/250/14
f 121/251/63 122/252/63 124/253/63 123/254/63
f 123/254/64 124/253/64 126/255/64 125/256/64
f 125/256/65 126/255/65 128/257/65 127/258/65
f 127/258/66 128/257/66 130/259/66 129/260/66
f 129/260/67 130/259/67 132/261/67 131/262/67
f 131/262/68 132/261/68 134/263/68 133/264/68
f 133/265/69 134/266/69 136/267/69 135/268/69
f 135/268/70 136/267/70 138/269/70 137/270/70
f 137/270/71 138/269/71 140/271/71 139/272/71
f 139/272/72 140/271/72 142/273/72 141/274/72
f 124/275/11 122/276/11 144/277/11 142/278/11 140/279/11 138/280/11 136/281/11 134/282/11 132/283/11 130/284/11 128/285/11 126/286/11
f 141/274/73 142/273/73 144/287/73 143/288/73
f 143/288/74 144/287/74 122/252/74 121/251/74
f 121/289/14 123/290/14 125/291/14 127/292/14 129/293/14 131/294/14 133/295/14 135/296/14 137/297/14 139/298/14 141/299/14 143/300/14
