# Blender v2.77 (sub 0) OBJ File: 'modules.blend'
# www.blender.org
mtllib RawT.mtl
o Cube.012_Cube.013
v 0.216958 0.024743 0.024743
v 0.216958 -0.024743 0.024743
v -0.216958 0.024743 0.024743
v -0.216958 -0.024743 0.024743
v 0.216958 0.024743 -0.024743
v 0.216958 -0.024743 -0.024743
v -0.216958 0.024743 -0.024743
v -0.216958 -0.024743 -0.024743
v -0.149296 0.191666 -0.000000
v -0.149296 0.191666 0.052597
v 0.149297 0.191666 -0.000000
v 0.149297 0.191666 0.052597
v 0.191666 0.149297 -0.000000
v 0.191666 0.149297 0.052597
v 0.191666 -0.149297 -0.000000
v 0.191666 -0.149297 0.052597
v 0.149297 -0.191666 -0.000000
v 0.149297 -0.191666 0.052597
v -0.149296 -0.191666 -0.000000
v -0.149297 -0.191666 0.052597
v -0.191666 -0.149297 -0.000000
v -0.191666 -0.149297 0.052597
v -0.191666 0.149297 -0.000000
v -0.191666 0.149297 0.052597
v -0.162992 -0.162992 0.064073
v -0.162992 0.162992 0.064073
v 0.162992 -0.162992 0.064073
v 0.162992 0.162992 0.064073
v -0.146786 -0.146786 0.064074
v -0.146786 0.146786 0.064074
v 0.146786 -0.146786 0.064074
v 0.146786 0.146786 0.064074
v -0.131267 -0.131267 0.044053
v -0.131267 0.131267 0.044053
v 0.131267 -0.131267 0.044053
v 0.131267 0.131267 0.044053
v 0.216958 0.107777 0.024743
v 0.216958 0.058291 0.024743
v -0.216958 0.107777 0.024743
v -0.216958 0.058291 0.024743
v 0.216958 0.107777 -0.024743
v 0.216958 0.058291 -0.024743
v -0.216958 0.107777 -0.024743
v -0.216958 0.058291 -0.024743
v 0.216958 -0.058291 0.024743
v 0.216958 -0.107777 0.024743
v -0.216958 -0.058291 0.024743
v -0.216958 -0.107777 0.024743
v 0.216958 -0.058291 -0.024743
v 0.216958 -0.107777 -0.024743
v -0.216958 -0.058291 -0.024743
v -0.216958 -0.107777 -0.024743
v 0.107777 -0.216958 -0.024743
v 0.058291 -0.216958 -0.024743
v 0.107777 0.216958 -0.024743
v 0.058291 0.216958 -0.024743
v 0.107777 -0.216958 0.024743
v 0.058291 -0.216958 0.024743
v 0.107777 0.216958 0.024743
v 0.058291 0.216958 0.024743
v -0.058291 -0.216958 -0.024743
v -0.107777 -0.216958 -0.024743
v -0.058291 0.216958 -0.024743
v -0.107777 0.216958 -0.024743
v -0.058291 -0.216958 0.024743
v -0.107777 -0.216958 0.024743
v -0.058291 0.216958 0.024743
v -0.107777 0.216958 0.024743
v 0.024743 -0.216958 -0.024743
v -0.024743 -0.216958 -0.024743
v 0.024743 0.216958 -0.024743
v -0.024743 0.216958 -0.024743
v 0.024743 -0.216958 0.024743
v -0.024743 -0.216958 0.024743
v 0.024743 0.216958 0.024743
v -0.024743 0.216958 0.024743
v -0.149296 -0.191666 -0.052597
v 0.149297 -0.191666 -0.052597
v 0.191666 -0.149297 -0.052597
v 0.191666 0.149297 -0.052597
v 0.149297 0.191666 -0.052597
v -0.149297 0.191666 -0.052597
v -0.191666 0.149297 -0.052597
v -0.191666 -0.149297 -0.052597
v -0.162992 0.162992 -0.064073
v -0.162992 -0.162992 -0.064073
v 0.162992 0.162992 -0.064073
v 0.162992 -0.162992 -0.064073
v -0.146786 0.146786 -0.064074
v -0.146786 -0.146786 -0.064074
v 0.146786 0.146786 -0.064074
v 0.146786 -0.146786 -0.064074
v -0.131267 0.131267 -0.044053
v -0.131267 -0.131267 -0.044053
v 0.131267 0.131267 -0.044053
v 0.131267 -0.131267 -0.044053
vt 0.5367 0.4934
vt 0.5605 0.4581
vt 0.6896 0.4580
vt 0.7092 0.4937
vt 0.7080 0.4393
vt 0.7431 0.4630
vt 0.7088 0.3101
vt 0.7446 0.2907
vt 0.6901 0.2918
vt 0.7139 0.2565
vt 0.5610 0.2919
vt 0.5414 0.2562
vt 0.5426 0.3106
vt 0.5074 0.2869
vt 0.6939 0.4435
vt 0.5418 0.4398
vt 0.5060 0.4592
vt 0.6943 0.3058
vt 0.5567 0.3064
vt 0.5563 0.4441
vt 0.5628 0.4379
vt 0.6877 0.4368
vt 0.5727 0.4271
vt 0.6770 0.4270
vt 0.6877 0.3120
vt 0.5628 0.3131
vt 0.9932 0.7410
vt 0.7592 0.7410
vt 0.7592 0.5070
vt 0.9932 0.5070
vt 0.5736 0.3229
vt 0.6779 0.3228
vt 0.5367 0.4934
vt 0.5605 0.4581
vt 0.6896 0.4580
vt 0.7092 0.4937
vt 0.7080 0.4393
vt 0.7431 0.4630
vt 0.7088 0.3101
vt 0.7446 0.2907
vt 0.6901 0.2918
vt 0.7139 0.2565
vt 0.5610 0.2919
vt 0.5414 0.2562
vt 0.5426 0.3106
vt 0.5074 0.2869
vt 0.6939 0.4435
vt 0.5418 0.4398
vt 0.5060 0.4592
vt 0.6943 0.3058
vt 0.5567 0.3064
vt 0.5563 0.4441
vt 0.5628 0.4379
vt 0.6877 0.4368
vt 0.5727 0.4271
vt 0.6770 0.4270
vt 0.6877 0.3120
vt 0.5628 0.3131
vt 0.9932 0.7410
vt 0.7592 0.7410
vt 0.7592 0.5070
vt 0.9932 0.5070
vt 0.5736 0.3229
vt 0.6779 0.3228
vt 0.5041 0.8329
vt 0.5041 0.9257
vt 0.5969 0.9257
vt 0.5969 0.8329
vt 0.5335 0.8624
vt 0.5335 0.8963
vt 0.5674 0.8963
vt 0.5674 0.8624
vt 0.5041 0.8329
vt 0.5041 0.9257
vt 0.5969 0.9257
vt 0.5969 0.8329
vt 0.5335 0.8624
vt 0.5335 0.8963
vt 0.5674 0.8963
vt 0.5674 0.8624
vt 0.5041 0.8329
vt 0.5041 0.9257
vt 0.5969 0.9257
vt 0.5969 0.8329
vt 0.5041 0.8329
vt 0.5041 0.9257
vt 0.5969 0.9257
vt 0.5969 0.8329
vt 0.5041 0.8329
vt 0.5041 0.9257
vt 0.5969 0.9257
vt 0.5969 0.8329
vt 0.5335 0.8624
vt 0.5335 0.8963
vt 0.5674 0.8963
vt 0.5674 0.8624
vt 0.5041 0.8329
vt 0.5041 0.9257
vt 0.5969 0.9257
vt 0.5969 0.8329
vt 0.5335 0.8624
vt 0.5335 0.8963
vt 0.5674 0.8963
vt 0.5674 0.8624
vt 0.5041 0.8329
vt 0.5041 0.9257
vt 0.5969 0.9257
vt 0.5969 0.8329
vt 0.5041 0.8329
vt 0.5041 0.9257
vt 0.5969 0.9257
vt 0.5969 0.8329
vt 0.5041 0.8329
vt 0.5041 0.9257
vt 0.5969 0.9257
vt 0.5969 0.8329
vt 0.5335 0.8624
vt 0.5335 0.8963
vt 0.5674 0.8963
vt 0.5674 0.8624
vt 0.5041 0.8329
vt 0.5041 0.9257
vt 0.5969 0.9257
vt 0.5969 0.8329
vt 0.5335 0.8624
vt 0.5335 0.8963
vt 0.5674 0.8963
vt 0.5674 0.8624
vt 0.5041 0.8329
vt 0.5041 0.9257
vt 0.5969 0.9257
vt 0.5969 0.8329
vt 0.5041 0.8329
vt 0.5041 0.9257
vt 0.5969 0.9257
vt 0.5969 0.8329
vt 0.5041 0.8329
vt 0.5041 0.9257
vt 0.5969 0.9257
vt 0.5969 0.8329
vt 0.5335 0.8624
vt 0.5335 0.8963
vt 0.5674 0.8963
vt 0.5674 0.8624
vt 0.5041 0.8329
vt 0.5041 0.9257
vt 0.5969 0.9257
vt 0.5969 0.8329
vt 0.5041 0.8329
vt 0.5041 0.9257
vt 0.5969 0.9257
vt 0.5969 0.8329
vt 0.5335 0.8624
vt 0.5335 0.8963
vt 0.5674 0.8963
vt 0.5674 0.8624
vt 0.5041 0.8329
vt 0.5041 0.9257
vt 0.5969 0.9257
vt 0.5969 0.8329
vt 0.5041 0.8329
vt 0.5041 0.9257
vt 0.5969 0.9257
vt 0.5969 0.8329
vt 0.5335 0.8624
vt 0.5335 0.8963
vt 0.5674 0.8963
vt 0.5674 0.8624
vt 0.5041 0.8329
vt 0.5041 0.9257
vt 0.5969 0.9257
vt 0.5969 0.8329
vt 0.5041 0.8329
vt 0.5041 0.9257
vt 0.5969 0.9257
vt 0.5969 0.8329
vt 0.5335 0.8624
vt 0.5335 0.8963
vt 0.5674 0.8963
vt 0.5674 0.8624
vt 0.5041 0.8329
vt 0.5041 0.9257
vt 0.5969 0.9257
vt 0.5969 0.8329
vt 0.5041 0.8329
vt 0.5041 0.9257
vt 0.5969 0.9257
vt 0.5969 0.8329
vt 0.5335 0.8624
vt 0.5335 0.8963
vt 0.5674 0.8963
vt 0.5674 0.8624
vt 0.5041 0.8329
vt 0.5041 0.9257
vt 0.5969 0.9257
vt 0.5969 0.8329
vt 0.5041 0.8329
vt 0.5041 0.9257
vt 0.5969 0.9257
vt 0.5969 0.8329
vt 0.5335 0.8624
vt 0.5335 0.8963
vt 0.5674 0.8963
vt 0.5674 0.8624
vt 0.5041 0.8329
vt 0.5041 0.9257
vt 0.5969 0.9257
vt 0.5969 0.8329
vn -0.0000 1.0000 0.0000
vn 0.7071 0.7071 0.0000
vn 1.0000 -0.0000 0.0000
vn 0.7071 -0.7071 0.0000
vn 0.0000 -1.0000 0.0000
vn -0.7071 -0.7071 -0.0000
vn 0.5196 0.5196 0.6782
vn -1.0000 -0.0000 0.0000
vn -0.7071 0.7071 0.0000
vn 0.3716 0.0000 0.9284
vn 0.0000 -0.3716 0.9284
vn 0.0000 0.0001 1.0000
vn -0.0000 0.3716 0.9284
vn -0.5196 0.5196 0.6782
vn 0.0000 -0.7904 0.6126
vn 0.0001 0.0000 1.0000
vn -0.0001 0.0000 1.0000
vn 0.0000 -0.0001 1.0000
vn 0.0000 0.0000 1.0000
vn 0.7904 0.0000 0.6126
vn 0.0000 0.7904 0.6126
vn -0.7904 0.0000 0.6126
vn -0.3716 0.0000 0.9284
vn 0.5196 -0.5196 0.6782
vn -0.5196 -0.5196 0.6782
vn 0.5196 -0.5196 -0.6782
vn 0.3716 0.0000 -0.9284
vn 0.0000 0.3716 -0.9284
vn 0.0000 -0.0001 -1.0000
vn 0.0000 -0.3716 -0.9284
vn -0.5196 -0.5196 -0.6782
vn 0.0000 0.7904 -0.6126
vn 0.0001 0.0000 -1.0000
vn -0.0001 0.0000 -1.0000
vn 0.0000 0.0001 -1.0000
vn 0.0000 0.0000 -1.0000
vn 0.7904 0.0000 -0.6126
vn 0.0000 -0.7904 -0.6126
vn -0.7904 0.0000 -0.6126
vn -0.3716 0.0000 -0.9284
vn 0.5196 0.5196 -0.6782
vn -0.5196 0.5196 -0.6782
usemtl None
s off
f 9/1/1 10/2/1 12/3/1 11/4/1
f 11/4/2 12/3/2 14/5/2 13/6/2
f 13/6/3 14/5/3 16/7/3 15/8/3
f 15/8/4 16/7/4 18/9/4 17/10/4
f 17/10/5 18/9/5 20/11/5 19/12/5
f 19/12/6 20/11/6 22/13/6 21/14/6
f 14/5/7 12/3/7 28/15/7
f 21/14/8 22/13/8 24/16/8 23/17/8
f 23/17/9 24/16/9 10/2/9 9/1/9
f 16/7/10 14/5/10 28/15/10 27/18/10
f 20/11/11 18/9/11 27/18/11 25/19/11
f 28/15/12 26/20/12 30/21/12 32/22/12
f 12/3/13 10/2/13 26/20/13 28/15/13
f 10/2/14 24/16/14 26/20/14
f 32/22/15 30/21/15 34/23/15 36/24/15
f 27/18/16 28/15/16 32/22/16 31/25/16
f 26/20/17 25/19/17 29/26/17 30/21/17
f 25/19/18 27/18/18 31/25/18 29/26/18
f 36/27/19 34/28/19 33/29/19 35/30/19
f 30/21/20 29/26/20 33/31/20 34/23/20
f 29/26/21 31/25/21 35/32/21 33/31/21
f 31/25/22 32/22/22 36/24/22 35/32/22
f 24/16/23 22/13/23 25/19/23 26/20/23
f 18/9/24 16/7/24 27/18/24
f 22/13/25 20/11/25 25/19/25
f 19/33/5 77/34/5 78/35/5 17/36/5
f 17/36/4 78/35/4 79/37/4 15/38/4
f 15/38/3 79/37/3 80/39/3 13/40/3
f 13/40/2 80/39/2 81/41/2 11/42/2
f 11/42/1 81/41/1 82/43/1 9/44/1
f 9/44/9 82/43/9 83/45/9 23/46/9
f 79/37/26 78/35/26 88/47/26
f 23/46/8 83/45/8 84/48/8 21/49/8
f 21/49/6 84/48/6 77/34/6 19/33/6
f 80/39/27 79/37/27 88/47/27 87/50/27
f 82/43/28 81/41/28 87/50/28 85/51/28
f 88/47/29 86/52/29 90/53/29 92/54/29
f 78/35/30 77/34/30 86/52/30 88/47/30
f 77/34/31 84/48/31 86/52/31
f 92/54/32 90/53/32 94/55/32 96/56/32
f 87/50/33 88/47/33 92/54/33 91/57/33
f 86/52/34 85/51/34 89/58/34 90/53/34
f 85/51/35 87/50/35 91/57/35 89/58/35
f 96/59/36 94/60/36 93/61/36 95/62/36
f 90/53/37 89/58/37 93/63/37 94/55/37
f 89/58/38 91/57/38 95/64/38 93/63/38
f 91/57/39 92/54/39 96/56/39 95/64/39
f 84/48/40 83/45/40 85/51/40 86/52/40
f 81/41/41 80/39/41 87/50/41
f 83/45/42 82/43/42 85/51/42
usemtl None_scene.jpg
f 2/65/19 1/66/19 3/67/19 4/68/19
f 4/69/8 3/70/8 7/71/8 8/72/8
f 8/73/36 7/74/36 5/75/36 6/76/36
f 6/77/3 5/78/3 1/79/3 2/80/3
f 1/81/1 5/82/1 7/83/1 3/84/1
f 6/85/5 2/86/5 4/87/5 8/88/5
f 38/89/19 37/90/19 39/91/19 40/92/19
f 40/93/8 39/94/8 43/95/8 44/96/8
f 44/97/36 43/98/36 41/99/36 42/100/36
f 42/101/3 41/102/3 37/103/3 38/104/3
f 37/105/1 41/106/1 43/107/1 39/108/1
f 42/109/5 38/110/5 40/111/5 44/112/5
f 46/113/19 45/114/19 47/115/19 48/116/19
f 48/117/8 47/118/8 51/119/8 52/120/8
f 52/121/36 51/122/36 49/123/36 50/124/36
f 50/125/3 49/126/3 45/127/3 46/128/3
f 45/129/1 49/130/1 51/131/1 47/132/1
f 50/133/5 46/134/5 48/135/5 52/136/5
f 60/137/8 56/138/8 54/139/8 58/140/8
f 57/141/5 58/142/5 54/143/5 53/144/5
f 59/145/19 60/146/19 58/147/19 57/148/19
f 55/149/3 59/150/3 57/151/3 53/152/3
f 55/153/1 56/154/1 60/155/1 59/156/1
f 53/157/36 54/158/36 56/159/36 55/160/36
f 68/161/8 64/162/8 62/163/8 66/164/8
f 65/165/5 66/166/5 62/167/5 61/168/5
f 67/169/19 68/170/19 66/171/19 65/172/19
f 63/173/3 67/174/3 65/175/3 61/176/3
f 63/177/1 64/178/1 68/179/1 67/180/1
f 61/181/36 62/182/36 64/183/36 63/184/36
f 76/185/8 72/186/8 70/187/8 74/188/8
f 73/189/5 74/190/5 70/191/5 69/192/5
f 75/193/19 76/194/19 74/195/19 73/196/19
f 71/197/3 75/198/3 73/199/3 69/200/3
f 71/201/1 72/202/1 76/203/1 75/204/1
f 69/205/36 70/206/36 72/207/36 71/208/36
